<svg xmlns="http://www.w3.org/2000/svg" data-name="Layer 1" viewBox="0 0 32 32"><path d="M31.231,13A2,2,0,0,0,28.4,13l-1,1h0l-3.218,3.218V7.5a.482.482,0,0,0-.013-.064.456.456,0,0,0-.012-.062.492.492,0,0,0-.121-.227l-7-7A.492.492,0,0,0,16.81.025a.452.452,0,0,0-.061-.012A.484.484,0,0,0,16.683,0h-14a2.5,2.5,0,0,0-2.5,2.5v27a2.5,2.5,0,0,0,2.5,2.5h19a2.5,2.5,0,0,0,2.5-2.5V22.876l6.046-6.046h0l1-1A2,2,0,0,0,31.231,13ZM17.183,1.707,22.476,7H18.683a1.5,1.5,0,0,1-1.5-1.5ZM16.7,7H4.683a.5.5,0,0,1-.5-.5v-2a.5.5,0,0,1,.5-.5h11.5V5.5A2.476,2.476,0,0,0,16.7,7Zm6.487,22.5a1.5,1.5,0,0,1-1.5,1.5h-19a1.5,1.5,0,0,1-1.5-1.5V2.5A1.5,1.5,0,0,1,2.683,1h13.5V3H4.683a1.5,1.5,0,0,0-1.5,1.5v2A1.5,1.5,0,0,0,4.683,8h18.5V18.219L17.442,23.96a.475.475,0,0,0-.058.088c-.01.016-.027.025-.035.042l-1.414,2.828a.492.492,0,0,0,.068.527l-.622.628a.5.5,0,1,0,.711.7l.605-.612.038.038a.5.5,0,0,0,.577.094l2.828-1.415c.017-.008.026-.025.042-.035a.475.475,0,0,0,.088-.058l2.913-2.912Zm-5.25-4.342,1.14,1.14-1.885.943-.135-.136,0-.006-.006,0-.052-.052Zm5.4-2.844,0,0-3.412,3.411L18.5,24.314l9.252-9.252,1.414,1.414Zm7.193-7.193-.648.648-1.415-1.415.648-.648a1,1,0,1,1,1.415,1.415ZM8.683,16h12a.5.5,0,0,0,0-1h-12a.5.5,0,1,0,0,1Zm0-3h12a.5.5,0,0,0,0-1h-12a.5.5,0,1,0,0,1Zm5,14.925a1.78,1.78,0,0,1-1.077-.329,2.923,2.923,0,0,0-3.183,0,1.78,1.78,0,0,1-1.077.329A1.778,1.778,0,0,1,7.272,27.6a2.752,2.752,0,0,0-1.589-.472.5.5,0,1,0,0,1,1.778,1.778,0,0,1,1.075.329,2.752,2.752,0,0,0,1.589.472,2.761,2.761,0,0,0,1.591-.471,1.926,1.926,0,0,1,2.153,0,2.761,2.761,0,0,0,1.591.471.5.5,0,0,0,0-1ZM8.683,11h12a.5.5,0,0,0,0-1h-12a.5.5,0,1,0,0,1Zm0,7h12a.5.5,0,0,0,0-1h-12a.5.5,0,1,0,0,1Zm-4,0a1.5,1.5,0,1,0-1.5-1.5A1.5,1.5,0,0,0,4.683,18Zm0-2a.5.5,0,1,1-.5.5A.5.5,0,0,1,4.683,16Zm1.5,5.5a1.5,1.5,0,1,0-1.5,1.5A1.5,1.5,0,0,0,6.183,21.5Zm-1.5.5a.5.5,0,1,1,.5-.5A.5.5,0,0,1,4.683,22Zm4-1h8a.5.5,0,0,0,0-1h-8a.5.5,0,1,0,0,1Zm-4-8a1.5,1.5,0,1,0-1.5-1.5A1.5,1.5,0,0,0,4.683,13Zm0-2a.5.5,0,1,1-.5.5A.5.5,0,0,1,4.683,11Zm4,12h8a.5.5,0,0,0,0-1h-8a.5.5,0,1,0,0,1Z"/></svg>